<?xml version="1.0" encoding="iso-8859-1"?>
<!-- Generator: Adobe Illustrator 21.0.2, SVG Export Plug-In . SVG Version: 6.00 Build 0)  -->
<svg xmlns="http://www.w3.org/2000/svg" xmlns:xlink="http://www.w3.org/1999/xlink" version="1.1" id="Layer_1" x="0px" y="0px" viewBox="0 0 40 40" style="enable-background:new 0 0 40 40;" xml:space="preserve">
<g>
	<path style="fill:#DFF0FE;" d="M13.158,38.5C12.029,37.692,9.5,35.557,9.5,34c0-0.34,0.146-0.883,0.313-1.511   c0.496-1.851,1.245-4.647-0.011-7.926c-0.145-0.379-0.297-0.702-0.444-1.018C8.937,22.651,8.575,21.878,8.5,19.98L8.48,19.5h-0.89   l-0.166,0.401c-0.019,0.094-0.031,0.305-0.044,0.6c-0.034,0.845-0.102,2.522-0.65,3.882L1.501,22.64   c0.031-4.03,0.585-5.636,0.886-6.509l0.089-0.263c0.187-0.566,0.154-1.2,0.101-2.249C2.542,12.945,2.5,12.107,2.5,11   c0-4.374,3.107-6.5,9.5-6.5h0.231l0.15-0.177C13.374,3.151,15.13,1.5,15.929,1.5h8.143c0.799,0,2.555,1.651,3.547,2.823l0.15,0.177   H28c6.393,0,9.5,2.126,9.5,6.5c0,1.107-0.042,1.945-0.076,2.619c-0.054,1.049-0.086,1.682,0.102,2.251l0.088,0.261   c0.301,0.874,0.854,2.479,0.886,6.509l-5.229,1.743c-0.549-1.359-0.616-3.037-0.65-3.882c-0.013-0.295-0.025-0.506-0.044-0.6   L32.494,19.5h-0.89L31.5,19.98c-0.075,1.898-0.438,2.671-0.858,3.566c-0.147,0.315-0.3,0.639-0.444,1.018   c-1.256,3.278-0.507,6.075-0.011,7.926C30.354,33.117,30.5,33.66,30.5,34c0,1.557-2.529,3.692-3.658,4.5H13.158z"/>
	<path style="fill:#4788C7;" d="M24.071,2c0.492,0.01,2.001,1.271,3.166,2.646L27.537,5H28c6.056,0,9,1.963,9,6   c0,1.094-0.042,1.925-0.076,2.593c-0.054,1.069-0.09,1.776,0.124,2.428c0.026,0.082,0.057,0.171,0.092,0.271   c0.283,0.82,0.795,2.305,0.854,5.989l-4.419,1.473c-0.373-1.19-0.428-2.549-0.457-3.274c-0.013-0.334-0.021-0.518-0.053-0.677   L32.904,19h-0.819H32h-0.961l-0.038,0.961c-0.071,1.796-0.398,2.491-0.811,3.372c-0.15,0.32-0.306,0.651-0.459,1.052   c-1.313,3.43-0.539,6.321-0.027,8.234C29.856,33.188,30,33.726,30,34c0,1.112-1.864,2.937-3.319,4H20h-6.681   C11.863,36.939,10,35.117,10,34c0-0.274,0.144-0.812,0.297-1.382c0.512-1.913,1.287-4.804-0.027-8.234   c-0.153-0.4-0.309-0.731-0.459-1.052c-0.414-0.881-0.74-1.576-0.811-3.372L8.961,19H8H7.915H7.096l-0.161,0.803   c-0.032,0.159-0.039,0.343-0.053,0.677c-0.029,0.725-0.084,2.084-0.457,3.274l-4.419-1.473c0.059-3.684,0.571-5.169,0.854-5.989   c0.034-0.1,0.065-0.189,0.09-0.266c0.216-0.657,0.18-1.364,0.126-2.433C3.042,12.925,3,12.094,3,11c0-4.037,2.944-6,9-6l0.464,0   l0.3-0.354C13.928,3.271,15.437,2.01,15.929,2H20H24.071 M24.071,1H20h-4.071C14.538,1,12,4,12,4C8.868,4,2,4.386,2,11   c0,2.771,0.265,3.908,0,4.714C1.739,16.523,1,18.164,1,23l6,2c0.963-1.909,0.837-4.611,0.915-5H8   c0.105,2.664,0.775,3.277,1.336,4.742C10.984,29.047,9,32.516,9,34c0,2.238,4,5,4,5h7h7c0,0,4-2.762,4-5   c0-1.484-1.984-4.953-0.336-9.258C31.225,23.277,31.895,22.664,32,20h0.085c0.078,0.389-0.048,3.091,0.915,5l6-2   c0-4.836-0.739-6.477-1-7.286c-0.265-0.806,0-1.943,0-4.714c0-6.614-6.868-7-10-7C28,4,25.462,1,24.071,1L24.071,1z"/>
</g>
<g>
	<path style="fill:#98CCFD;" d="M8,14c0,0,0.643,2.566,1.183,3.572c0.944,1.756,1.906,2.713,5.236,3.356   c0.28,0.054,0.57,0.077,0.865,0.071c2.245-0.042,4.71-2.182,4.71-3.999c0,1.788,2.437,3.904,4.654,3.996   c0.331,0.014,0.658-0.007,0.971-0.068c3.329-0.642,4.262-1.604,5.207-3.362c0.537-1.004,1.18-3.572,1.18-3.572   C31.059,13.994,26,7,26,7c-4.741,1.867-4.982,3-6,3c-1.016,0-1.293-1.097-6-3C14,7,8.977,14,8,14z"/>
</g>
</svg>
