<?xml version="1.0" encoding="iso-8859-1"?>
<!-- Generator: Adobe Illustrator 21.0.2, SVG Export Plug-In . SVG Version: 6.00 Build 0)  -->
<svg xmlns="http://www.w3.org/2000/svg" xmlns:xlink="http://www.w3.org/1999/xlink" version="1.1" id="Layer_1" x="0px" y="0px" viewBox="0 0 40 40" style="enable-background:new 0 0 40 40;" xml:space="preserve">
<path style="fill:#DFF0FE;" d="M17.071,1c-1.841,1.665-5.566,6.458-6.204,9.5c-1.538,1.997-0.828,3.692-0.003,5.351  c0.881,1.503,0.666,2.7,1.054,4.562c0.328,1.517,1.338,3.748,1.888,5.229c1.231,3.307,3.746,6.681,2.866,8.246  c-0.926,1.662-1.486,1.29-3.038,1.955c-1.625,0.702-2.604,1.002-3.209,1.115C8.847,37.251,9,37.397,9,37.665  c0,0.706,0.617,1.306,1.335,1.306c0.407,0,0.873-0.113,1.184-0.297C11.955,38.971,12.431,39,12.962,39  c4.419,0,3.482-0.41,5.143-0.41c0.677,0,1.729,0.41,3.321,0.41c1.589,0,2.432-1.141,2.432-2.112c0-1.74-1.779-2.567-2.491-7.547  C20.621,24.138,22,25.331,22,19c0-3.621-2.126-5.38-2-6c0.138-0.604,1.092-1.596,2.419-2.225C23.961,10.039,30.225,6.045,32,1  H17.071z"/>
<g>
	<path style="fill:#B6DCFE;" d="M20.485,24.117c0.121-0.539,0.25-1.114,0.348-1.907c-0.177,0.285-0.472,0.505-1.048,0.505   c-1.81,0-3.777-4.904-3.786-6.714c0.039,7.956,2.781,11.268,4.303,12.902C19.991,26.377,20.207,25.358,20.485,24.117z"/>
	<path style="fill:#B6DCFE;" d="M16,13c1.192-0.397,2.331-0.071,3,0c0.003-0.01,0.011-0.021,0.014-0.031   c0.004-0.057-0.005-0.111,0.006-0.169c0.219-0.958,1.324-2.073,2.729-2.802c-0.877-0.008-1.674-0.058-1.836-0.219   C19.006,8.875,24,2,24,2S16.907,7.573,16,13z"/>
</g>
<g>
	<path style="fill:none;stroke:#4788C7;stroke-linecap:round;stroke-miterlimit:10;" d="M31.265,1.5   c-2.059,4.684-7.93,8.284-9.061,8.823c-1.367,0.648-2.5,1.728-2.691,2.565c-0.083,0.404,0.147,0.782,0.496,1.354   C20.603,15.218,21.5,16.69,21.5,19c0,2.875-0.292,4.179-0.527,5.226c-0.288,1.285-0.515,2.301-0.102,5.187   c0.433,3.031,1.25,4.568,1.848,5.689c0.384,0.723,0.638,1.2,0.638,1.786c0,0.67-0.599,1.612-1.932,1.612   c-0.915,0-1.648-0.144-2.238-0.26c-0.412-0.081-0.767-0.15-1.083-0.15c-0.688,0-0.979,0.067-1.317,0.146   c-0.482,0.111-1.143,0.265-3.826,0.265c-0.537,0-0.863-0.037-1.161-0.239l-0.263-0.179l-0.273,0.161   c-0.23,0.136-0.604,0.228-0.929,0.228c-0.436,0-0.819-0.361-0.835-0.78c0.131-0.048,0.413-0.129,1.016-0.241   c0.772-0.145,1.888-0.53,3.316-1.147c0.404-0.173,0.742-0.272,1.039-0.36c0.939-0.276,1.506-0.497,2.237-1.811   c0.715-1.271-0.25-3.206-1.366-5.445c-0.524-1.051-1.066-2.138-1.468-3.218c-0.159-0.427-0.355-0.916-0.563-1.434   c-0.506-1.259-1.08-2.686-1.305-3.727c-0.124-0.593-0.184-1.116-0.242-1.622c-0.118-1.024-0.229-1.992-0.87-3.088   c-0.82-1.652-1.355-3.075-0.032-4.793l0.07-0.09l0.023-0.112c0.588-2.804,4.077-7.373,5.911-9.103"/>
</g>
</svg>
